<svg xmlns="http://www.w3.org/2000/svg" xmlns:xlink="http://www.w3.org/1999/xlink" width="409" zoomAndPan="magnify" viewBox="0 0 306.75 410.99999" height="548" preserveAspectRatio="xMidYMid meet" version="1.0">
  <rect width="100%" height="100%" fill="#000000" />
  <defs>
    <g />
    <clipPath id="130fac510f">
      <path d="M 0 0.167969 L 288 0.167969 L 288 410.832031 L 0 410.832031 Z M 0 0.167969 " clip-rule="nonzero" />
    </clipPath>
    <clipPath id="7c5233907b">
      <path d="M 0 41 L 287.765625 41 L 287.765625 212 L 0 212 Z M 0 41 " clip-rule="nonzero" />
    </clipPath>
    <clipPath id="369599643f">
      <rect x="0" width="288" y="0" height="171" />
    </clipPath>
    <clipPath id="6536c2595e">
      <path d="M 0 247 L 274 247 L 274 410.832031 L 0 410.832031 Z M 0 247 " clip-rule="nonzero" />
    </clipPath>
    <clipPath id="d648f913ed">
      <rect x="0" width="274" y="0" height="164" />
    </clipPath>
    <clipPath id="59f9148426">
      <path d="M 0 0.167969 L 278 0.167969 L 278 264 L 0 264 Z M 0 0.167969 " clip-rule="nonzero" />
    </clipPath>
    <clipPath id="ec776511ce">
      <rect x="0" width="278" y="0" height="264" />
    </clipPath>
    <clipPath id="c644435213">
      <rect x="0" width="288" y="0" height="411" />
    </clipPath>
  </defs>
  <g clip-path="url(#130fac510f)">
    <g transform="matrix(1, 0, 0, 1, 0, 0.000000000000037054)">
      <g clip-path="url(#c644435213)">
        <g clip-path="url(#7c5233907b)">
          <g transform="matrix(1, 0, 0, 1, 0, 41)">
            <g clip-path="url(#369599643f)">
              <g fill="#574276" fill-opacity="1">
                <g transform="translate(53.226007, 1.130769)">
                  <g>
                    <path d="M 0 148.09375 L 0 135.296875 L 96.59375 135.296875 C 104 135.296875 111.007812 134.0625 117.625 131.59375 C 124.25 129.132812 129.972656 125.601562 134.796875 121 C 139.617188 116.394531 143.488281 110.953125 146.40625 104.671875 C 149.320312 98.390625 150.78125 91.546875 150.78125 84.140625 C 150.78125 76.515625 149.378906 69.5625 146.578125 63.28125 C 143.773438 57 139.90625 51.613281 134.96875 47.125 C 130.03125 42.632812 124.25 39.15625 117.625 36.6875 C 111.007812 34.21875 104 32.984375 96.59375 32.984375 L 0 32.984375 L 0 20.1875 L 98.625 20.1875 C 107.59375 20.1875 115.945312 21.757812 123.6875 24.90625 C 131.425781 28.050781 138.210938 32.425781 144.046875 38.03125 C 149.890625 43.644531 154.492188 50.378906 157.859375 58.234375 C 161.222656 66.085938 162.90625 74.722656 162.90625 84.140625 C 162.90625 93.566406 161.222656 102.207031 157.859375 110.0625 C 154.492188 117.914062 149.835938 124.644531 143.890625 130.25 C 137.941406 135.863281 131.097656 140.238281 123.359375 143.375 C 115.617188 146.519531 107.375 148.09375 98.625 148.09375 Z M 0 148.09375 " />
                  </g>
                </g>
              </g>
            </g>
          </g>
        </g>
        <g clip-path="url(#6536c2595e)">
          <g transform="matrix(1, 0, 0, 1, 0, 247)">
            <g clip-path="url(#d648f913ed)">
              <g fill="#5c00e1" fill-opacity="1">
                <g transform="translate(36.380118, 0.931715)">
                  <g>
                    <path d="M 235.609375 152.140625 L 223.484375 152.140625 L 223.484375 124.53125 C 223.484375 111.738281 221.015625 99.335938 216.078125 87.328125 C 211.140625 75.328125 204.351562 64.613281 195.71875 55.1875 C 187.082031 45.769531 176.875 38.085938 165.09375 32.140625 C 153.3125 26.191406 140.6875 23.109375 127.21875 22.890625 L 127.21875 152.140625 L 115.109375 152.140625 L 115.109375 22.890625 C 99.398438 22.890625 85.207031 25.859375 72.53125 31.796875 C 59.851562 37.742188 49.023438 45.765625 40.046875 55.859375 C 31.078125 65.960938 24.175781 77.578125 19.34375 90.703125 C 14.519531 103.828125 12.109375 117.570312 12.109375 131.9375 L 12.109375 152.140625 L 0 152.140625 L 0 124.875 C 0 109.382812 2.75 94.628906 8.25 80.609375 C 13.75 66.585938 21.601562 54.242188 31.8125 43.578125 C 42.019531 32.921875 54.359375 24.453125 68.828125 18.171875 C 83.304688 11.890625 99.628906 8.75 117.796875 8.75 C 135.972656 8.75 152.351562 11.890625 166.9375 18.171875 C 181.53125 24.453125 193.875 32.921875 203.96875 43.578125 C 214.0625 54.242188 221.859375 66.585938 227.359375 80.609375 C 232.859375 94.628906 235.609375 109.382812 235.609375 124.875 Z M 235.609375 152.140625 " />
                  </g>
                </g>
              </g>
            </g>
          </g>
        </g>
        <g clip-path="url(#59f9148426)">
          <g transform="matrix(1, 0, 0, 1, 0, 0.000000000000037054)">
            <g clip-path="url(#ec776511ce)">
              <g fill="#5c00e1" fill-opacity="1">
                <g transform="translate(36.380118, 0.168749)">
                  <g>
                    <path d="M 117.796875 250.75 C 101.191406 250.75 85.539062 247.609375 70.84375 241.328125 C 56.144531 235.046875 43.242188 226.519531 32.140625 215.75 C 21.035156 204.976562 12.226562 192.296875 5.71875 177.703125 C -0.78125 163.117188 -4.03125 147.414062 -4.03125 130.59375 C -4.03125 113.757812 -0.78125 98.050781 5.71875 83.46875 C 12.226562 68.882812 21.035156 56.265625 32.140625 45.609375 C 43.242188 34.953125 56.144531 26.535156 70.84375 20.359375 C 85.539062 14.191406 101.191406 11.109375 117.796875 11.109375 C 134.179688 11.109375 149.773438 14.132812 164.578125 20.1875 C 179.390625 26.25 192.347656 34.664062 203.453125 45.4375 C 214.566406 56.207031 223.375 68.882812 229.875 83.46875 C 236.382812 98.050781 239.640625 113.757812 239.640625 130.59375 C 239.640625 147.875 236.328125 163.859375 229.703125 178.546875 C 223.085938 193.242188 214.171875 205.921875 202.953125 216.578125 C 191.734375 227.242188 178.773438 235.601562 164.078125 241.65625 C 149.378906 247.71875 133.953125 250.75 117.796875 250.75 Z M 8.75 130.59375 C 8.75 144.957031 11.609375 158.53125 17.328125 171.3125 C 23.054688 184.101562 30.851562 195.320312 40.71875 204.96875 C 50.59375 214.625 62.148438 222.195312 75.390625 227.6875 C 88.628906 233.1875 102.765625 235.9375 117.796875 235.9375 C 132.390625 235.9375 146.25 233.242188 159.375 227.859375 C 172.5 222.472656 184.050781 215.066406 194.03125 205.640625 C 204.019531 196.222656 211.988281 185.0625 217.9375 172.15625 C 223.882812 159.257812 226.859375 145.289062 226.859375 130.25 C 226.859375 115.664062 223.992188 102.035156 218.265625 89.359375 C 212.546875 76.679688 204.75 65.628906 194.875 56.203125 C 185 46.785156 173.441406 39.382812 160.203125 34 C 146.972656 28.613281 132.835938 25.921875 117.796875 25.921875 C 103.210938 25.921875 89.300781 28.554688 76.0625 33.828125 C 62.820312 39.097656 51.207031 46.390625 41.21875 55.703125 C 31.238281 65.015625 23.332031 76.066406 17.5 88.859375 C 11.664062 101.648438 8.75 115.5625 8.75 130.59375 Z M 8.75 130.59375 " />
                  </g>
                </g>
              </g>
            </g>
          </g>
        </g>
      </g>
    </g>
  </g>
</svg>
