<svg xmlns="http://www.w3.org/2000/svg" xmlns:xlink="http://www.w3.org/1999/xlink" width="1249" zoomAndPan="magnify" viewBox="0 0 936.75 437.999984" height="584" preserveAspectRatio="xMidYMid meet" version="1.0"><defs><g/><clipPath id="9374af0d59"><path d="M 6 10 L 890 10 L 890 437.941406 L 6 437.941406 Z M 6 10 " clip-rule="nonzero"/></clipPath><clipPath id="82b8ac1a46"><path d="M 373 0.375 L 628 0.375 L 628 427.941406 L 373 427.941406 Z M 373 0.375 " clip-rule="nonzero"/></clipPath><clipPath id="369e0e2594"><rect x="0" width="255" y="0" height="428"/></clipPath><clipPath id="e7a7a28af9"><path d="M 599 0.375 L 883.441406 0.375 L 883.441406 427.941406 L 599 427.941406 Z M 599 0.375 " clip-rule="nonzero"/></clipPath><clipPath id="f938abab57"><rect x="0" width="285" y="0" height="428"/></clipPath><clipPath id="d05b2a2b39"><path d="M 0.476562 44 L 399 44 L 399 427.941406 L 0.476562 427.941406 Z M 0.476562 44 " clip-rule="nonzero"/></clipPath><clipPath id="9bf91f0ed3"><rect x="0" width="399" y="0" height="384"/></clipPath><clipPath id="bb2468649d"><rect x="0" width="884" y="0" height="428"/></clipPath></defs><g clip-path="url(#9374af0d59)"><g transform="matrix(1, 0, 0, 1, 6, 10)"><g clip-path="url(#bb2468649d)"><g clip-path="url(#82b8ac1a46)"><g transform="matrix(1, 0, 0, 1, 373, -0.00000000000003908)"><g clip-path="url(#369e0e2594)"><g fill="#574276" fill-opacity="1"><g transform="translate(2.411252, 351.190886)"><g><path d="M 221.484375 0 L 202.359375 0 L 202.359375 -144.46875 C 202.359375 -155.539062 200.507812 -166.023438 196.8125 -175.921875 C 193.125 -185.828125 187.84375 -194.390625 180.96875 -201.609375 C 174.09375 -208.828125 165.953125 -214.613281 156.546875 -218.96875 C 147.148438 -223.332031 136.914062 -225.515625 125.84375 -225.515625 C 114.4375 -225.515625 104.035156 -223.414062 94.640625 -219.21875 C 85.242188 -215.03125 77.1875 -209.242188 70.46875 -201.859375 C 63.757812 -194.472656 58.554688 -185.828125 54.859375 -175.921875 C 51.171875 -166.023438 49.328125 -155.539062 49.328125 -144.46875 L 49.328125 0 L 30.203125 0 L 30.203125 -147.5 C 30.203125 -160.914062 32.550781 -173.410156 37.25 -184.984375 C 41.945312 -196.566406 48.488281 -206.722656 56.875 -215.453125 C 65.269531 -224.179688 75.335938 -231.0625 87.078125 -236.09375 C 98.828125 -241.125 111.75 -243.640625 125.84375 -243.640625 C 139.9375 -243.640625 152.859375 -241.125 164.609375 -236.09375 C 176.359375 -231.0625 186.425781 -224.097656 194.8125 -215.203125 C 203.195312 -206.304688 209.738281 -196.066406 214.4375 -184.484375 C 219.132812 -172.910156 221.484375 -160.582031 221.484375 -147.5 Z M 221.484375 0 "/></g></g></g></g></g></g><g clip-path="url(#e7a7a28af9)"><g transform="matrix(1, 0, 0, 1, 599, -0.00000000000003908)"><g clip-path="url(#f938abab57)"><g fill="#5c00e1" fill-opacity="1"><g transform="translate(2.426135, 351.190886)"><g><path d="M 78.53125 -69.46875 L 66.453125 -85.578125 L 219.984375 -189.28125 C 211.253906 -200.351562 200.257812 -209.160156 187 -215.703125 C 173.75 -222.242188 159.070312 -225.515625 142.96875 -225.515625 C 128.195312 -225.515625 114.519531 -222.742188 101.9375 -217.203125 C 89.351562 -211.671875 78.445312 -204.035156 69.21875 -194.296875 C 59.988281 -184.566406 52.6875 -173.160156 47.3125 -160.078125 C 41.945312 -146.992188 39.265625 -132.898438 39.265625 -117.796875 C 39.265625 -103.359375 41.945312 -89.765625 47.3125 -77.015625 C 52.6875 -64.265625 60.070312 -53.191406 69.46875 -43.796875 C 78.863281 -34.398438 89.851562 -26.929688 102.4375 -21.390625 C 115.019531 -15.859375 128.53125 -13.09375 142.96875 -13.09375 C 157.0625 -13.09375 170.316406 -15.773438 182.734375 -21.140625 C 195.148438 -26.515625 206.140625 -33.726562 215.703125 -42.78125 C 225.265625 -51.84375 232.8125 -62.5 238.34375 -74.75 C 243.882812 -87 246.992188 -100.171875 247.671875 -114.265625 L 267.796875 -114.265625 C 267.128906 -97.148438 263.4375 -81.289062 256.71875 -66.6875 C 250.007812 -52.09375 241.117188 -39.507812 230.046875 -28.9375 C 218.972656 -18.375 206.304688 -10.070312 192.046875 -4.03125 C 177.785156 2.007812 162.765625 5.03125 146.984375 5.03125 C 128.191406 5.03125 110.992188 1.84375 95.390625 -4.53125 C 79.785156 -10.90625 66.273438 -19.628906 54.859375 -30.703125 C 43.453125 -41.773438 34.644531 -54.863281 28.4375 -69.96875 C 22.226562 -85.070312 19.125 -101.347656 19.125 -118.796875 C 19.125 -135.910156 22.226562 -152.101562 28.4375 -167.375 C 34.644531 -182.644531 43.285156 -195.898438 54.359375 -207.140625 C 65.441406 -218.390625 78.53125 -227.285156 93.625 -233.828125 C 108.726562 -240.367188 125.175781 -243.640625 142.96875 -243.640625 C 166.125 -243.640625 186.925781 -238.269531 205.375 -227.53125 C 223.832031 -216.789062 238.429688 -202.695312 249.171875 -185.25 Z M 78.53125 -69.46875 "/></g></g></g></g></g></g><g clip-path="url(#d05b2a2b39)"><g transform="matrix(1, 0, 0, 1, 0, 44)"><g clip-path="url(#9bf91f0ed3)"><g fill="#5c00e1" fill-opacity="1"><g transform="translate(1.513716, 361.425513)"><g><path d="M 375.03125 -176.1875 C 375.03125 -151.351562 370.332031 -127.941406 360.9375 -105.953125 C 351.539062 -83.972656 338.785156 -64.675781 322.671875 -48.0625 C 306.566406 -31.457031 287.601562 -18.285156 265.78125 -8.546875 C 243.96875 1.179688 220.476562 6.046875 195.3125 6.046875 C 170.144531 6.046875 146.65625 1.179688 124.84375 -8.546875 C 103.03125 -18.285156 84.148438 -31.457031 68.203125 -48.0625 C 52.265625 -64.675781 39.679688 -83.972656 30.453125 -105.953125 C 21.222656 -127.941406 16.609375 -151.351562 16.609375 -176.1875 C 16.609375 -200.6875 21.140625 -224.007812 30.203125 -246.15625 C 39.265625 -268.300781 51.847656 -287.679688 67.953125 -304.296875 C 84.066406 -320.910156 103.03125 -334.082031 124.84375 -343.8125 C 146.65625 -353.550781 170.144531 -358.421875 195.3125 -358.421875 C 221.15625 -358.421875 245.066406 -353.46875 267.046875 -343.5625 C 289.023438 -333.664062 307.984375 -320.328125 323.921875 -303.546875 C 339.867188 -286.765625 352.375 -267.382812 361.4375 -245.40625 C 370.5 -223.425781 375.03125 -200.351562 375.03125 -176.1875 Z M 195.3125 -13.09375 C 216.789062 -13.09375 237.09375 -17.367188 256.21875 -25.921875 C 275.351562 -34.484375 292.132812 -46.144531 306.5625 -60.90625 C 320.988281 -75.675781 332.3125 -92.957031 340.53125 -112.75 C 348.757812 -132.550781 352.875 -153.695312 352.875 -176.1875 C 352.875 -198 348.847656 -218.71875 340.796875 -238.34375 C 332.742188 -257.976562 321.664062 -275.265625 307.5625 -290.203125 C 293.46875 -305.140625 276.773438 -317.050781 257.484375 -325.9375 C 238.191406 -334.832031 217.300781 -339.28125 194.8125 -339.28125 C 173 -339.28125 152.609375 -335 133.640625 -326.4375 C 114.679688 -317.882812 98.15625 -306.222656 84.0625 -291.453125 C 69.96875 -276.691406 58.894531 -259.410156 50.84375 -239.609375 C 42.789062 -219.804688 38.765625 -198.664062 38.765625 -176.1875 C 38.765625 -154.375 42.707031 -133.566406 50.59375 -113.765625 C 58.476562 -93.960938 69.382812 -76.59375 83.3125 -61.65625 C 97.238281 -46.726562 113.765625 -34.898438 132.890625 -26.171875 C 152.023438 -17.453125 172.832031 -13.09375 195.3125 -13.09375 Z M 195.3125 -13.09375 "/></g></g></g></g></g></g></g></g></g></svg>